<svg xmlns="http://www.w3.org/2000/svg" width="80" height="80" fill="none" xmlns:v="https://vecta.io/nano"><path d="M56.667 26.667V20A16.65 16.65 0 0 0 51.79 8.227 16.65 16.65 0 0 0 40.017 3.35a16.65 16.65 0 0 0-11.773 4.877A16.65 16.65 0 0 0 23.367 20v6.667h-10V73.3h53.3V26.667h-10zM30.033 20c0-1.31.258-2.61.76-3.82s1.237-2.312 2.164-3.24 2.028-1.662 3.24-2.164 2.5-.76 3.82-.76 2.61.258 3.82.76 2.312 1.237 3.24 2.164 1.662 2.028 2.164 3.24S50 18.69 50 20v6.667H30.033V20zM60 66.633H20.033v-33.3H60v33.3z" fill="url(#A)"/><path d="M43.333 40h-6.667v20h6.667V40z" fill="url(#B)"/><defs><linearGradient id="A" x1="40.017" y1="38.325" x2="69.276" y2="41.062" gradientUnits="userSpaceOnUse"><stop stop-color="#0f8f62"/><stop offset="1" stop-color="#2bb47e"/></linearGradient><linearGradient id="B" x1="40" y1="50" x2="43.686" y2="50.151" gradientUnits="userSpaceOnUse"><stop stop-color="#0f8f62"/><stop offset="1" stop-color="#2bb47e"/></linearGradient></defs></svg>