<svg xmlns="http://www.w3.org/2000/svg" width="80" height="80" fill="none" xmlns:v="https://vecta.io/nano"><path fill-rule="evenodd" d="M63.333 20c1.84 0 3.333-1.492 3.333-3.333s-1.492-3.333-3.333-3.333S60 14.826 60 16.667 61.492 20 63.333 20zm0 6.667c5.523 0 10-4.477 10-10s-4.477-10-10-10-10 4.477-10 10c0 1.17.2 2.29.57 3.333H31.667v6.667H48.62l-27.64 27.64a9.96 9.96 0 0 0-4.311-.975c-5.523 0-10 4.477-10 10s4.477 10 10 10 10-4.477 10-10a9.96 9.96 0 0 0-.975-4.311l27.64-27.64v16.952H60V26.098c1.043.37 2.164.57 3.333.57zM20 63.333c0 1.84-1.492 3.333-3.333 3.333s-3.333-1.492-3.333-3.333S14.826 60 16.667 60 20 61.493 20 63.333z" fill="url(#A)"/><defs><linearGradient id="A" x1="40" y1="40" x2="76.369" y2="44.465" gradientUnits="userSpaceOnUse"><stop stop-color="#0f8f62"/><stop offset="1" stop-color="#2bb47e"/></linearGradient></defs></svg>